<?xml version="1.0" encoding="UTF-8"?>
<svg id="Layer_2" data-name="Layer 2" xmlns="http://www.w3.org/2000/svg" width="2100" height="1600" viewBox="0 0 2100 1600">
  <g id="Layer_1-2" data-name="Layer 1">
    <g id="icon">
      <rect id="box" width="2100" height="1600" style="fill: #fff;"/>
      <g id="icon-2" data-name="icon">
        <g>
          <path d="M1299,899.5h-198.6l-15,15h221.1c4.14,0,7.5-3.36,7.5-7.5v-221.1l-15,15v198.6Zm7.5-380H793.5c-4.14,0-7.5,3.36-7.5,7.5v380c0,4.14,3.36,7.5,7.5,7.5h250.89l15-15h-258.39v-365h498v125.38l15-15v-117.88c0-4.14-3.36-7.5-7.5-7.5Z" style="fill: #7a7b7c;"/>
          <g>
            <g>
              <path d="M1147.01,740.03l34.23,37.62-10.62,10.61-30.28-33.28-50.03,34.76c-3,2.09-7.07,1.7-9.63-.91l-80.73-82.28-117.82,133.64c-1.49,1.69-3.55,2.54-5.63,2.54-1.77,0-3.53-.61-4.96-1.87-3.11-2.74-3.41-7.48-.67-10.59l123.16-139.69c1.38-1.56,3.34-2.48,5.43-2.54,2.07-.04,4.09,.76,5.55,2.25l81.94,83.52,50.23-34.9c3.09-2.14,7.29-1.67,9.83,1.12Z" style="fill: #aaabac;"/>
              <path d="M1228.55,840.78c-3.07,2.79-7.81,2.56-10.6-.5l-27.79-30.54,10.62-10.62,28.27,31.07c2.78,3.06,2.56,7.8-.5,10.59Z" style="fill: #aaabac;"/>
            </g>
            <path d="M1150.81,602.21c-20.95,0-38,17.05-38,38s17.05,38,38,38,38-17.04,38-38-17.04-38-38-38Zm0,61c-12.68,0-23-10.31-23-23s10.32-23,23-23,23,10.32,23,23-10.31,23-23,23Z" style="fill: #aaabac;"/>
          </g>
        </g>
        <path d="M1019.85,981.07c-1.92,0-3.84-.73-5.3-2.2-2.93-2.93-2.93-7.68,0-10.61l360.85-360.86c2.93-2.93,7.68-2.93,10.61,0,2.93,2.93,2.93,7.68,0,10.61l-360.86,360.86c-1.46,1.46-3.38,2.2-5.3,2.2Z" style="fill: #7a7b7c;"/>
      </g>
      <g id="text">
        <g>
          <rect x="763.73" y="1030.16" width="14.13" height="101.76" style="fill: #7a7b7c;"/>
          <path d="M900.38,1099.84c-.99,2.2-2.25,5.37-3.76,9.42-.85-2.43-2.09-5.49-3.71-9.14l-30.78-69.96h-17.43v101.76h13.71v-67.7c0-3.65-.03-6.9-.09-9.74,.13,.35,.27,.67,.4,.98l34.18,76.46h7.3l34.24-77.01c.06-.13,.12-.27,.18-.41-.19,3.54-.28,6.74-.28,9.58v67.84h14.06v-101.76h-16.59l-31.41,69.68Z" style="fill: #7a7b7c;"/>
          <path d="M1042.19,1030.16l-39.03,101.76h15.64l9.9-27.83h40.34l10.52,27.83h15.56l-39.17-101.76h-13.76Zm6.65,18.72c.17,.63,.34,1.18,.51,1.65l14.95,40.61h-30.82l14.82-40.61c.18-.5,.36-1.05,.54-1.66Z" style="fill: #7a7b7c;"/>
          <path d="M1188.86,1090.66h21.73v25.82c-5.33,2.75-11.68,4.14-18.89,4.14-10.89,0-19.61-3.49-25.94-10.36-6.35-6.9-9.57-16.58-9.57-28.75s3.47-21.53,10.33-28.91c6.83-7.36,15.72-11.09,26.42-11.09s20.06,2.5,27.85,7.42l1.92,1.21v-15.93l-.71-.34c-7.47-3.57-16.81-5.38-27.74-5.38-15.18,0-27.9,5.1-37.82,15.15-9.91,10.05-14.93,23.07-14.93,38.71s4.53,27.8,13.46,37.13c8.95,9.35,20.82,14.09,35.27,14.09,12.34,0,23.73-2.9,33.84-8.61l.63-.36v-46.97h-35.86v13.02Z" style="fill: #7a7b7c;"/>
          <polygon points="1300.41 1118.9 1300.41 1086.65 1339.6 1086.65 1339.6 1073.7 1300.41 1073.7 1300.41 1043.18 1342.5 1043.18 1342.5 1030.16 1286.28 1030.16 1286.28 1131.92 1344.72 1131.92 1344.72 1118.9 1300.41 1118.9" style="fill: #7a7b7c;"/>
        </g>
        <g>
          <path d="M785.81,1184.23c-8.65,0-15.9,2.93-21.53,8.7-5.64,5.77-8.49,13.43-8.49,22.76,0,8.69,2.54,15.82,7.56,21.19,5.03,5.39,11.81,8.12,20.15,8.12,6.41,0,11.86-1.16,16.19-3.45l.4-.21v-8.3l-1.14,.69c-4.08,2.48-8.98,3.73-14.57,3.73-5.97,0-10.85-2.01-14.51-5.98-3.68-3.98-5.54-9.43-5.54-16.19,0-7.13,2-12.89,5.94-17.13,3.92-4.22,9.13-6.36,15.47-6.36,4.81,0,9.26,1.12,13.23,3.34l1.12,.62v-8.93l-.45-.2c-3.65-1.61-8.3-2.42-13.82-2.42Z" style="fill: #b7b8b9;"/>
          <path d="M837.1,1184.23c-8.77,0-15.8,2.85-20.91,8.48-5.09,5.61-7.67,13.21-7.67,22.58,0,8.74,2.54,15.95,7.54,21.42,5.02,5.5,11.78,8.28,20.09,8.28s15.39-2.83,20.47-8.4c5.07-5.56,7.63-13.19,7.63-22.7,0-8.76-2.51-15.97-7.45-21.42-4.96-5.47-11.59-8.25-19.69-8.25Zm-.48,7.58c5.93,0,10.63,2,13.99,5.94,3.38,3.98,5.1,9.72,5.1,17.07s-1.77,12.79-5.25,16.74c-3.46,3.92-8.28,5.91-14.32,5.91-5.64,0-10.27-2.08-13.77-6.2-3.53-4.15-5.32-9.72-5.32-16.57s1.84-12.44,5.46-16.63c3.59-4.15,8.34-6.26,14.11-6.26Z" style="fill: #b7b8b9;"/>
          <path d="M908.26,1225.47c-.56,1.26-1.28,3.06-2.15,5.37-.49-1.38-1.19-3.1-2.12-5.21l-17.8-40.44h-10.12v58.85h7.98v-39.15c0-2.04-.02-3.87-.05-5.47,.06,.15,.12,.29,.18,.42l19.76,44.2h4.25l19.79-44.52s.03-.06,.04-.09c-.1,1.98-.16,3.78-.16,5.38v39.23h8.18v-58.85h-9.63l-18.16,40.28Z" style="fill: #b7b8b9;"/>
          <rect x="951.68" y="1185.19" width="8.22" height="58.85" style="fill: #b7b8b9;"/>
          <path d="M1015.04,1226.33c0,2.18,.04,4,.12,5.48-.25-.39-.52-.82-.81-1.28l-28.94-45.34h-9.88v58.85h8.22v-42.19c0-1.81-.02-3.34-.06-4.59,.14,.24,.29,.48,.44,.71l29.74,46.06h9.4v-58.85h-8.22v41.15Z" style="fill: #b7b8b9;"/>
          <path d="M1062.44,1220.2h12.56v14.88c-3.07,1.58-6.73,2.38-10.89,2.38-6.28,0-11.32-2.01-14.97-5.98-3.66-3.98-5.52-9.57-5.52-16.59s2-12.43,5.96-16.69c3.94-4.25,9.07-6.4,15.25-6.4s11.58,1.44,16.08,4.28l1.15,.73v-9.27l-.43-.2c-4.32-2.07-9.72-3.11-16.04-3.11-8.78,0-16.14,2.95-21.87,8.76-5.73,5.81-8.63,13.34-8.63,22.38s2.62,16.08,7.79,21.48c5.18,5.41,12.04,8.15,20.4,8.15,7.14,0,13.72-1.67,19.57-4.98l.38-.22v-27.18h-20.78v7.58Z" style="fill: #b7b8b9;"/>
          <path d="M1151.51,1218.08c-1.42-1.39-3.09-2.68-4.97-3.82-1.85-1.12-3.83-2.21-5.9-3.23-1.97-.97-3.75-1.88-5.28-2.71-1.48-.8-2.75-1.63-3.78-2.48-.98-.81-1.73-1.71-2.23-2.68-.49-.95-.74-2.12-.74-3.46,0-1.41,.32-2.62,.96-3.59,.65-.99,1.51-1.82,2.56-2.45,1.07-.65,2.3-1.12,3.68-1.41,1.41-.3,2.84-.45,4.25-.45,5.13,0,9.37,1.14,12.61,3.39l1.18,.82v-9.44l-.4-.21c-2.72-1.43-6.88-2.12-12.71-2.12-2.54,0-5.05,.32-7.49,.94-2.46,.63-4.68,1.61-6.61,2.9-1.95,1.31-3.55,3-4.75,5.02-1.21,2.04-1.82,4.47-1.82,7.2,0,2.23,.39,4.22,1.17,5.89,.77,1.66,1.83,3.17,3.17,4.48,1.31,1.29,2.88,2.48,4.66,3.55,1.74,1.04,3.64,2.09,5.65,3.11,1.89,.96,3.65,1.87,5.29,2.73,1.59,.84,2.99,1.73,4.14,2.65,1.12,.89,2.01,1.87,2.64,2.93,.61,1.02,.91,2.25,.91,3.66,0,2.65-.9,4.62-2.76,6.02-1.9,1.43-4.86,2.15-8.81,2.15-1.15,0-2.43-.12-3.79-.35-1.38-.23-2.77-.57-4.12-1-1.35-.42-2.65-.95-3.89-1.57-1.2-.61-2.25-1.3-3.1-2.05l-1.25-1.1v9.98l.33,.22c.8,.54,1.87,1.04,3.16,1.47,1.27,.42,2.62,.78,4.03,1.06,1.39,.28,2.78,.5,4.15,.65,1.35,.15,2.51,.23,3.44,.23,2.76,0,5.43-.28,7.92-.84,2.53-.56,4.8-1.49,6.75-2.76,1.97-1.29,3.56-2.98,4.72-5.04,1.16-2.07,1.76-4.61,1.76-7.55,0-2.24-.44-4.26-1.3-6.01-.85-1.72-2.01-3.31-3.45-4.72Z" style="fill: #b7b8b9;"/>
          <path d="M1193.07,1184.23c-8.77,0-15.8,2.85-20.91,8.48-5.09,5.61-7.67,13.21-7.67,22.58,0,8.74,2.54,15.95,7.54,21.42,5.02,5.5,11.78,8.28,20.09,8.28s15.39-2.83,20.47-8.4c5.07-5.56,7.64-13.19,7.64-22.7,0-8.76-2.51-15.97-7.45-21.42-4.96-5.47-11.59-8.25-19.7-8.25Zm-.48,7.58c5.93,0,10.63,2,13.99,5.94,3.38,3.97,5.1,9.72,5.1,17.07s-1.77,12.79-5.25,16.74c-3.46,3.92-8.28,5.91-14.32,5.91-5.63,0-10.27-2.08-13.77-6.2-3.53-4.15-5.32-9.72-5.32-16.57s1.84-12.44,5.46-16.63c3.59-4.15,8.34-6.26,14.11-6.26Z" style="fill: #b7b8b9;"/>
          <path d="M1256.87,1184.23c-8.77,0-15.8,2.85-20.91,8.48-5.09,5.61-7.67,13.21-7.67,22.58,0,8.74,2.54,15.95,7.54,21.42,5.02,5.5,11.78,8.28,20.09,8.28s15.39-2.83,20.47-8.4c5.07-5.56,7.63-13.19,7.63-22.7,0-8.76-2.51-15.97-7.45-21.42-4.97-5.47-11.59-8.25-19.69-8.25Zm-.48,7.58c5.93,0,10.63,2,13.99,5.94,3.38,3.97,5.1,9.72,5.1,17.07s-1.77,12.79-5.25,16.74c-3.46,3.92-8.28,5.91-14.32,5.91-5.64,0-10.27-2.08-13.77-6.2-3.53-4.15-5.32-9.72-5.32-16.57s1.84-12.44,5.46-16.63c3.59-4.15,8.34-6.26,14.11-6.26Z" style="fill: #b7b8b9;"/>
          <path d="M1335.36,1185.19v41.15c0,2.18,.04,4,.12,5.48-.25-.39-.52-.82-.82-1.28l-28.72-45-.22-.35h-9.88v58.85h8.22v-42.19c0-1.81-.02-3.34-.06-4.58,.14,.24,.29,.48,.44,.71l29.74,46.06h9.4v-58.85h-8.22Z" style="fill: #b7b8b9;"/>
        </g>
        <rect x="754.72" y="1157.89" width="590.57" height="4" style="fill: #919293;"/>
      </g>
    </g>
  </g>
</svg>